# xmcd
#
# Track frame offsets:
#	150
#	21200
#	37550
#	50580
#	69035
#	96177
#	116250
#	122957
#	159127
#	179090
#	208707
#	227702
#	252502
#	258672
#	283205
#
# Disc length: 4225 seconds
#
# Revision: 1
# Processed by: cddbd v1.5PL3 Copyright (c) Steve Scherf et al.
# Submitted via: EasyCDDAExtractor 7.0.5.4
#
DISCID=cf107f0f
DTITLE=Various Artist - formaldehyd sampler
DYEAR=1900
DGENRE=
TTITLE0=clubheroes - da lost chick
TTITLE1=fly baby - you must admit (original)
TTITLE2=amorph - love jewels
TTITLE3=stereogen - hi-q
TTITLE4=amorph - aerostatic
TTITLE5=kom's diner - thunfischsalat
TTITLE6=saeurebottich - fenchell
TTITLE7=clubheroes - dum dum (green velvet remix)
TTITLE8=jan and mattheus - hyppelen hoer
TTITLE9=funky nite
TTITLE10=tircacon - zawinal
TTITLE11=jan driver  - arp impressions pt. 1 
TTITLE12=rigido - mettere in moto 
TTITLE13=clubheroes - da lost piano
TTITLE14=amorph - royallistique
EXTD=
EXTT0=
EXTT1=
EXTT2=
EXTT3=
EXTT4=
EXTT5=
EXTT6=
EXTT7=
EXTT8=
EXTT9=
EXTT10=
EXTT11=
EXTT12=
EXTT13=
EXTT14=
PLAYORDER=
